<?xml version="1.0" encoding="UTF-8" standalone="no"?>
<!-- Created with Inkscape (http://www.inkscape.org/) -->

<svg
   xmlns:dc="http://purl.org/dc/elements/1.1/"
   xmlns:cc="http://creativecommons.org/ns#"
   xmlns:rdf="http://www.w3.org/1999/02/22-rdf-syntax-ns#"
   xmlns:svg="http://www.w3.org/2000/svg"
   xmlns="http://www.w3.org/2000/svg"
   xmlns:xlink="http://www.w3.org/1999/xlink"
   xmlns:sodipodi="http://sodipodi.sourceforge.net/DTD/sodipodi-0.dtd"
   xmlns:inkscape="http://www.inkscape.org/namespaces/inkscape"
   width="210mm"
   height="297mm"
   viewBox="0 0 210 297"
   version="1.1"
   id="svg8"
   sodipodi:docname="logo.svg"
   inkscape:export-filename="C:\Users\Aakash Panchal\Desktop\Project HTML and CSS\images\logo.png"
   inkscape:export-xdpi="3.9036179"
   inkscape:export-ydpi="3.9036179"
   inkscape:version="0.92.4 (5da689c313, 2019-01-14)">
  <defs
     id="defs2">
    <linearGradient
       inkscape:collect="always"
       id="linearGradient968">
      <stop
         style="stop-color:#fbc0ff;stop-opacity:1;"
         offset="0"
         id="stop964" />
      <stop
         style="stop-color:#ff4263;stop-opacity:0"
         offset="1"
         id="stop966" />
    </linearGradient>
    <linearGradient
       inkscape:collect="always"
       id="linearGradient960">
      <stop
         style="stop-color:#bbfce3;stop-opacity:1;"
         offset="0"
         id="stop956" />
      <stop
         style="stop-color:#1194fd;stop-opacity:0.9752475"
         offset="1"
         id="stop958" />
    </linearGradient>
    <linearGradient
       inkscape:collect="always"
       id="linearGradient948">
      <stop
         style="stop-color:#000000;stop-opacity:1;"
         offset="0"
         id="stop944" />
      <stop
         style="stop-color:#000000;stop-opacity:0;"
         offset="1"
         id="stop946" />
    </linearGradient>
    <inkscape:path-effect
       effect="skeletal"
       id="path-effect836"
       is_visible="true"
       pattern="M 0,5 C 0,2.24 2.24,0 5,0 7.76,0 10,2.24 10,5 10,7.76 7.76,10 5,10 2.24,10 0,7.76 0,5 Z"
       copytype="single_stretched"
       prop_scale="0.26458333"
       scale_y_rel="false"
       spacing="0"
       normal_offset="0"
       tang_offset="0"
       prop_units="false"
       vertical_pattern="false"
       fuse_tolerance="0" />
    <linearGradient
       inkscape:collect="always"
       xlink:href="#linearGradient948"
       id="linearGradient954"
       x1="-302.5376"
       y1="141.59828"
       x2="-164.12343"
       y2="141.59828"
       gradientUnits="userSpaceOnUse" />
    <linearGradient
       inkscape:collect="always"
       xlink:href="#linearGradient960"
       id="linearGradient962"
       x1="-452.81546"
       y1="-61.321434"
       x2="-436.18451"
       y2="208.55357"
       gradientUnits="userSpaceOnUse" />
    <linearGradient
       inkscape:collect="always"
       xlink:href="#linearGradient968"
       id="linearGradient970"
       x1="-58.208328"
       y1="-7.648809"
       x2="-82.398811"
       y2="158.66072"
       gradientUnits="userSpaceOnUse" />
  </defs>
  <sodipodi:namedview
     id="base"
     pagecolor="#ffffff"
     bordercolor="#666666"
     borderopacity="1.0"
     inkscape:pageopacity="0.0"
     inkscape:pageshadow="2"
     inkscape:zoom="0.35"
     inkscape:cx="-77.142857"
     inkscape:cy="560"
     inkscape:document-units="mm"
     inkscape:current-layer="layer1"
     showgrid="false"
     inkscape:window-width="1920"
     inkscape:window-height="986"
     inkscape:window-x="-11"
     inkscape:window-y="-11"
     inkscape:window-maximized="1" />
  <metadata
     id="metadata5">
    <rdf:RDF>
      <cc:Work
         rdf:about="">
        <dc:format>image/svg+xml</dc:format>
        <dc:type
           rdf:resource="http://purl.org/dc/dcmitype/StillImage" />
        <dc:title></dc:title>
      </cc:Work>
    </rdf:RDF>
  </metadata>
  <g
     inkscape:label="Layer 1"
     inkscape:groupmode="layer"
     id="layer1">
    <g
       id="g1038"
       transform="matrix(1.3523201,0,0,0.85094971,409.52527,19.437121)"
       inkscape:export-xdpi="6.9639959"
       inkscape:export-ydpi="6.9639959">
      <path
         d="M -302.48143,266.273 A 113.01488,161.77382 0 0 1 -334.77791,73.722158 113.01488,161.77382 0 0 1 -212.66302,-19.32658"
         sodipodi:open="true"
         sodipodi:end="4.8818573"
         sodipodi:start="2.2473252"
         sodipodi:ry="161.77382"
         sodipodi:rx="113.01488"
         sodipodi:cy="140.12976"
         sodipodi:cx="-231.72392"
         sodipodi:type="arc"
         id="path824"
         style="opacity:0.68199978;fill:url(#linearGradient962);fill-opacity:1;stroke:#000000;stroke-width:1;stroke-linecap:round;stroke-miterlimit:0.69999999;stroke-dasharray:none;stroke-dashoffset:410.6456604;stroke-opacity:1;paint-order:markers fill stroke" />
      <path
         d="m -166.77881,-9.1606146 a 51.198795,79.375 0 0 1 44.30291,39.8061646 51.198795,79.375 0 0 1 -0.0923,79.38525 51.198795,79.375 0 0 1 -44.39517,39.55832 l 0.10386,-79.374833 z"
         sodipodi:end="1.572825"
         sodipodi:start="4.7139649"
         sodipodi:ry="79.375"
         sodipodi:rx="51.198795"
         sodipodi:cy="70.214287"
         sodipodi:cx="-166.8595"
         sodipodi:type="arc"
         id="path826"
         style="opacity:0.68199978;fill:url(#linearGradient970);fill-opacity:1;stroke:#000000;stroke-width:1;stroke-linecap:round;stroke-miterlimit:0.69999999;stroke-dasharray:none;stroke-dashoffset:410.6456604;stroke-opacity:1;paint-order:markers fill stroke" />
      <path
         inkscape:path-effect="#path-effect836"
         sodipodi:nodetypes="cccc"
         inkscape:original-d="m -300.86906,266.76191 89.61432,-281.97025 44.29138,164.79746 0.65383,151.94659"
         inkscape:connector-curvature="0"
         id="path834"
         d="m -300.86906,266.76191 c -0.92767,-0.29483 39.06779,-125.49902 89.62271,-282.341913 0,0 0,-2.5e-5 0,-2.5e-5 9.06471,32.809935 -5.49521,-19.890014 3.5695,12.9199208 15.77526,57.1008162 29.25246,105.9414672 41.83304,152.0989572 0.17652,91.06666 0.0209,152.09477 -0.46572,152.09686 -0.48654,0.002 -1.16739,-60.9946 -1.77338,-151.79632 -12.1974,-46.03539 -24.9313,-94.719753 -39.81307,-151.6863702 -0.63051,-2.4135866 -2.73664,-10.4760858 -3.36715,-12.8896718 0,0 -1e-5,2.4e-5 -1e-5,2.4e-5 -49.09786,156.711148 -88.67764,281.893558 -89.60592,281.598538 z"
         style="fill:#beadf9;fill-opacity:1;stroke:url(#linearGradient954);stroke-width:3.29999995;stroke-linecap:butt;stroke-linejoin:miter;stroke-miterlimit:4;stroke-dasharray:none;stroke-opacity:1" />
    </g>
    <rect
       style="opacity:0.68199978;fill:#808080;fill-opacity:0;stroke:none;stroke-width:3.29999995;stroke-linecap:round;stroke-miterlimit:4;stroke-dasharray:none;stroke-dashoffset:410.6456604;stroke-opacity:1;paint-order:markers fill stroke"
       id="rect1117"
       width="233.58928"
       height="322.79166"
       x="-346.2262"
       y="-21.255951" />
    <path
       style="opacity:0.68199989;fill:#808080;fill-opacity:0;stroke:none;stroke-width:35.63554382;stroke-linecap:round;stroke-miterlimit:4;stroke-dasharray:none;stroke-dashoffset:410.6456604;stroke-opacity:1;paint-order:markers fill stroke"
       d="m -1163.7018,975.48503 c -72.2452,-97.82092 -114.9778,-213.28643 -131.0519,-354.1082 -6.4648,-56.63589 -4.4164,-161.78952 4.243,-217.81883 28.3533,-183.45574 111.83,-337.209472 227.4221,-418.883209 74.63311,-52.733469 165.81394,-74.260543 243.51243,-57.491385 14.30468,3.087286 14.90874,3.587319 13.11643,10.857733 -1.96297,7.962729 -6.91257,23.4896 -139.04723,436.192831 -89.29783,278.90846 -176.85293,555.43172 -189.92093,599.82249 l -8.3587,28.39394 z"
       id="path1119"
       inkscape:connector-curvature="0"
       transform="scale(0.26458333)" />
    <path
       style="opacity:0.68199989;fill:#808080;fill-opacity:0;stroke:none;stroke-width:35.63554382;stroke-linecap:round;stroke-miterlimit:4;stroke-dasharray:none;stroke-dashoffset:410.6456604;stroke-opacity:1;paint-order:markers fill stroke"
       d="m -453.14286,301.55646 c 0,-1.47263 -4.5,-1.94727 -10,-1.05474 -6.1992,1.00599 -10,0.46303 -10,-1.42857 0,-1.89159 -3.80079,-2.43456 -10,-1.42857 -6.1992,1.00599 -10,0.46302 -10,-1.42857 0,-1.8916 -3.80079,-2.43456 -10,-1.42857 -6.1992,1.00599 -10,0.46302 -10,-1.42857 0,-1.8916 -3.80079,-2.43457 -10,-1.42858 -6.37829,1.03506 -10,0.47848 -10,-1.53677 0,-1.95722 -3.12989,-2.53357 -8.22491,-1.51457 -4.56811,0.91363 -9.06337,0.28833 -10.11078,-1.40641 -1.03882,-1.68085 -5.53036,-2.3225 -10,-1.42857 -4.46964,0.89392 -8.96118,0.25228 -10,-1.42857 -1.06494,-1.7231 -5.56887,-2.3148 -10.34652,-1.35927 -5.1277,1.02554 -8.46064,0.49667 -8.46064,-1.34253 0,-1.87251 -3.82956,-2.4132 -10,-1.41188 -6.37829,1.03506 -10,0.47848 -10,-1.53677 0,-1.9868 -3.18151,-2.52325 -8.57143,-1.44526 l -8.57143,1.71428 v -54.64286 c 0,-43.94663 0.75442,-54.64285 3.85405,-54.64285 2.11973,0 39.72688,5.1907 83.57143,11.5349 43.84456,6.34419 83.11688,11.80848 87.27183,12.14286 7.12579,0.57345 7.65935,1.67016 9.40291,19.32731 1.01666,10.29565 1.66437,35.04565 1.43938,55 -0.37864,33.5812 -0.81253,36.28064 -5.83148,36.28064 -2.98233,0 -5.42241,-1.20488 -5.42241,-2.67751 z m -3.63095,-7.62011 c -0.9494,-0.9494 -3.41369,-1.05091 -5.47619,-0.22557 -2.27924,0.91207 -1.60222,1.58909 1.72619,1.72619 3.0119,0.12406 4.6994,-0.55122 3.75,-1.50063 z m -20,-2.85714 c -0.9494,-0.9494 -3.41369,-1.05091 -5.47619,-0.22557 -2.27924,0.91207 -1.60222,1.58909 1.72619,1.72619 3.0119,0.12406 4.6994,-0.55122 3.75,-1.50063 z m -20,-2.85714 c -0.9494,-0.94941 -3.41369,-1.05091 -5.47619,-0.22558 -2.27924,0.91208 -1.60222,1.5891 1.72619,1.7262 3.0119,0.12405 4.6994,-0.55123 3.75,-1.50063 z m -20,-2.85715 c -0.9494,-0.9494 -3.41369,-1.05091 -5.47619,-0.22557 -2.27924,0.91208 -1.60222,1.5891 1.72619,1.72619 3.0119,0.12406 4.6994,-0.55122 3.75,-1.50063 z m -17.14286,-2.85714 c -0.9494,-0.9494 -3.41369,-1.05091 -5.47619,-0.22557 -2.27923,0.91207 -1.60221,1.58909 1.72619,1.72619 3.01191,0.12406 4.69941,-0.55122 3.75,-1.50063 z m -20,-2.85714 c -0.9494,-0.94941 -3.41369,-1.05091 -5.47619,-0.22557 -2.27923,0.91207 -1.60221,1.58909 1.72619,1.72619 3.01191,0.12405 4.69941,-0.55123 3.75,-1.50063 z m -20,-2.85715 c -0.9494,-0.9494 -3.41369,-1.0509 -5.47619,-0.22557 -2.27923,0.91208 -1.60221,1.5891 1.72619,1.72619 3.01191,0.12406 4.69941,-0.55122 3.75,-1.50062 z m -20,-2.85714 c -0.9494,-0.9494 -3.41369,-1.05091 -5.47619,-0.22557 -2.27923,0.91207 -1.60221,1.58909 1.72619,1.72619 3.01191,0.12406 4.69941,-0.55122 3.75,-1.50063 z m -20,-2.85714 c -0.9494,-0.9494 -3.41369,-1.05091 -5.47619,-0.22556 -2.27923,0.91207 -1.60222,1.58909 1.72619,1.72619 3.01191,0.12405 4.69941,-0.55123 3.75,-1.50063 z M -456,198.51969 c 0,-1.57143 -2.25,-2.83746 -5,-2.8134 -4.27299,0.0374 -4.37685,0.44646 -0.71429,2.8134 5.39204,3.4846 5.71429,3.4846 5.71429,0 z m -20,-2.85715 c 0,-1.57143 -1.36159,-2.85714 -3.02576,-2.85714 -1.66417,0 -2.23115,1.28571 -1.25995,2.85714 0.97119,1.57143 2.33278,2.85715 3.02576,2.85715 0.69297,0 1.25995,-1.28572 1.25995,-2.85715 z m -18.57143,-2.85714 c -0.9712,-1.57143 -3.05152,-2.85714 -4.62295,-2.85714 -1.57143,0 -2.06253,1.28571 -1.09133,2.85714 0.97119,1.57143 3.05152,2.85714 4.62295,2.85714 1.57143,0 2.06253,-1.28571 1.09133,-2.85714 z m -20,-2.85714 c -0.9712,-1.57143 -3.05152,-2.85715 -4.62295,-2.85715 -1.57143,0 -2.06253,1.28572 -1.09133,2.85715 0.97119,1.57143 3.05152,2.85714 4.62295,2.85714 1.57143,0 2.06253,-1.28571 1.09133,-2.85714 z m -20,-2.85715 c -0.9712,-1.57142 -3.05152,-2.85714 -4.62295,-2.85714 -1.57143,0 -2.06253,1.28572 -1.09133,2.85714 0.97119,1.57143 3.05152,2.85715 4.62295,2.85715 1.57143,0 2.06253,-1.28572 1.09133,-2.85715 z m -20,-2.85714 c -0.9712,-1.57143 -3.05152,-2.85714 -4.62295,-2.85714 -1.57143,0 -2.06253,1.28571 -1.09133,2.85714 0.97119,1.57143 3.05152,2.85714 4.62295,2.85714 1.57143,0 2.06253,-1.28571 1.09133,-2.85714 z m -20,-2.85714 c -0.9712,-1.57143 -3.29707,-2.83746 -5.16862,-2.81339 -2.04462,0.0263 -1.69221,1.14922 0.88291,2.81339 5.48892,3.54721 6.47801,3.54721 4.28571,0 z m -20,-2.85714 c -0.9712,-1.57143 -3.29707,-2.83746 -5.16862,-2.8134 -2.04462,0.0263 -1.69221,1.14922 0.88291,2.8134 5.48892,3.54721 6.47801,3.54721 4.28571,0 z m -18.57143,-2.85715 c 0,-1.57143 -2.25,-2.83745 -5,-2.81339 -4.27299,0.0374 -4.37685,0.44646 -0.71428,2.81339 5.39203,3.4846 5.71428,3.4846 5.71428,0 z"
       id="path1121"
       inkscape:connector-curvature="0"
       transform="scale(0.26458333)" />
    <path
       style="opacity:0.68199989;fill:#808080;fill-opacity:0;stroke:none;stroke-width:35.63554382;stroke-linecap:round;stroke-miterlimit:4;stroke-dasharray:none;stroke-dashoffset:410.6456604;stroke-opacity:1;paint-order:markers fill stroke"
       d="m -453.14286,301.55646 c 0,-1.47263 -4.5,-1.94727 -10,-1.05474 -6.1992,1.00599 -10,0.46303 -10,-1.42857 0,-1.89159 -3.80079,-2.43456 -10,-1.42857 -6.1992,1.00599 -10,0.46302 -10,-1.42857 0,-1.8916 -3.80079,-2.43456 -10,-1.42857 -6.1992,1.00599 -10,0.46302 -10,-1.42857 0,-1.8916 -3.80079,-2.43457 -10,-1.42858 -6.37829,1.03506 -10,0.47848 -10,-1.53677 0,-1.95722 -3.12989,-2.53357 -8.22491,-1.51457 -4.56811,0.91363 -9.06337,0.28833 -10.11078,-1.40641 -1.03882,-1.68085 -5.53036,-2.3225 -10,-1.42857 -4.46964,0.89392 -8.96118,0.25228 -10,-1.42857 -1.06494,-1.7231 -5.56887,-2.3148 -10.34652,-1.35927 -5.1277,1.02554 -8.46064,0.49667 -8.46064,-1.34253 0,-1.87251 -3.82956,-2.4132 -10,-1.41188 -6.37829,1.03506 -10,0.47848 -10,-1.53677 0,-1.9868 -3.18151,-2.52325 -8.57143,-1.44526 l -8.57143,1.71428 v -54.64286 c 0,-43.94663 0.75442,-54.64285 3.85405,-54.64285 2.11973,0 39.72688,5.1907 83.57143,11.5349 43.84456,6.34419 83.11688,11.80848 87.27183,12.14286 7.12579,0.57345 7.65935,1.67016 9.40291,19.32731 1.01666,10.29565 1.66437,35.04565 1.43938,55 -0.37864,33.5812 -0.81253,36.28064 -5.83148,36.28064 -2.98233,0 -5.42241,-1.20488 -5.42241,-2.67751 z m -3.63095,-7.62011 c -0.9494,-0.9494 -3.41369,-1.05091 -5.47619,-0.22557 -2.27924,0.91207 -1.60222,1.58909 1.72619,1.72619 3.0119,0.12406 4.6994,-0.55122 3.75,-1.50063 z m -20,-2.85714 c -0.9494,-0.9494 -3.41369,-1.05091 -5.47619,-0.22557 -2.27924,0.91207 -1.60222,1.58909 1.72619,1.72619 3.0119,0.12406 4.6994,-0.55122 3.75,-1.50063 z m -20,-2.85714 c -0.9494,-0.94941 -3.41369,-1.05091 -5.47619,-0.22558 -2.27924,0.91208 -1.60222,1.5891 1.72619,1.7262 3.0119,0.12405 4.6994,-0.55123 3.75,-1.50063 z m -20,-2.85715 c -0.9494,-0.9494 -3.41369,-1.05091 -5.47619,-0.22557 -2.27924,0.91208 -1.60222,1.5891 1.72619,1.72619 3.0119,0.12406 4.6994,-0.55122 3.75,-1.50063 z m -17.14286,-2.85714 c -0.9494,-0.9494 -3.41369,-1.05091 -5.47619,-0.22557 -2.27923,0.91207 -1.60221,1.58909 1.72619,1.72619 3.01191,0.12406 4.69941,-0.55122 3.75,-1.50063 z m -20,-2.85714 c -0.9494,-0.94941 -3.41369,-1.05091 -5.47619,-0.22557 -2.27923,0.91207 -1.60221,1.58909 1.72619,1.72619 3.01191,0.12405 4.69941,-0.55123 3.75,-1.50063 z m -20,-2.85715 c -0.9494,-0.9494 -3.41369,-1.0509 -5.47619,-0.22557 -2.27923,0.91208 -1.60221,1.5891 1.72619,1.72619 3.01191,0.12406 4.69941,-0.55122 3.75,-1.50062 z m -20,-2.85714 c -0.9494,-0.9494 -3.41369,-1.05091 -5.47619,-0.22557 -2.27923,0.91207 -1.60221,1.58909 1.72619,1.72619 3.01191,0.12406 4.69941,-0.55122 3.75,-1.50063 z m -20,-2.85714 c -0.9494,-0.9494 -3.41369,-1.05091 -5.47619,-0.22556 -2.27923,0.91207 -1.60222,1.58909 1.72619,1.72619 3.01191,0.12405 4.69941,-0.55123 3.75,-1.50063 z M -456,198.51969 c 0,-1.57143 -2.25,-2.83746 -5,-2.8134 -4.27299,0.0374 -4.37685,0.44646 -0.71429,2.8134 5.39204,3.4846 5.71429,3.4846 5.71429,0 z m -20,-2.85715 c 0,-1.57143 -1.36159,-2.85714 -3.02576,-2.85714 -1.66417,0 -2.23115,1.28571 -1.25995,2.85714 0.97119,1.57143 2.33278,2.85715 3.02576,2.85715 0.69297,0 1.25995,-1.28572 1.25995,-2.85715 z m -18.57143,-2.85714 c -0.9712,-1.57143 -3.05152,-2.85714 -4.62295,-2.85714 -1.57143,0 -2.06253,1.28571 -1.09133,2.85714 0.97119,1.57143 3.05152,2.85714 4.62295,2.85714 1.57143,0 2.06253,-1.28571 1.09133,-2.85714 z m -20,-2.85714 c -0.9712,-1.57143 -3.05152,-2.85715 -4.62295,-2.85715 -1.57143,0 -2.06253,1.28572 -1.09133,2.85715 0.97119,1.57143 3.05152,2.85714 4.62295,2.85714 1.57143,0 2.06253,-1.28571 1.09133,-2.85714 z m -20,-2.85715 c -0.9712,-1.57142 -3.05152,-2.85714 -4.62295,-2.85714 -1.57143,0 -2.06253,1.28572 -1.09133,2.85714 0.97119,1.57143 3.05152,2.85715 4.62295,2.85715 1.57143,0 2.06253,-1.28572 1.09133,-2.85715 z m -20,-2.85714 c -0.9712,-1.57143 -3.05152,-2.85714 -4.62295,-2.85714 -1.57143,0 -2.06253,1.28571 -1.09133,2.85714 0.97119,1.57143 3.05152,2.85714 4.62295,2.85714 1.57143,0 2.06253,-1.28571 1.09133,-2.85714 z m -20,-2.85714 c -0.9712,-1.57143 -3.29707,-2.83746 -5.16862,-2.81339 -2.04462,0.0263 -1.69221,1.14922 0.88291,2.81339 5.48892,3.54721 6.47801,3.54721 4.28571,0 z m -20,-2.85714 c -0.9712,-1.57143 -3.29707,-2.83746 -5.16862,-2.8134 -2.04462,0.0263 -1.69221,1.14922 0.88291,2.8134 5.48892,3.54721 6.47801,3.54721 4.28571,0 z m -18.57143,-2.85715 c 0,-1.57143 -2.25,-2.83745 -5,-2.81339 -4.27299,0.0374 -4.37685,0.44646 -0.71428,2.81339 5.39203,3.4846 5.71428,3.4846 5.71428,0 z"
       id="path1123"
       inkscape:connector-curvature="0"
       transform="scale(0.26458333)" />
  </g>
</svg>
